<svg width="21" height="22" viewBox="0 0 21 22" fill="none" xmlns="http://www.w3.org/2000/svg">
<path d="M15.9904 2.45873H15.1488V1.61401C15.1488 1.38997 15.0602 1.17512 14.9023 1.0167C14.7445 0.858284 14.5304 0.769287 14.3072 0.769287C14.084 0.769287 13.87 0.858284 13.7121 1.0167C13.5543 1.17512 13.4656 1.38997 13.4656 1.61401V2.45873H6.73282V1.61401C6.73282 1.38997 6.64415 1.17512 6.48632 1.0167C6.32849 0.858284 6.11442 0.769287 5.89121 0.769287C5.66801 0.769287 5.45394 0.858284 5.29611 1.0167C5.13828 1.17512 5.04961 1.38997 5.04961 1.61401V2.45873H4.20801C3.09239 2.46007 2.02284 2.90548 1.23397 3.69727C0.445108 4.48906 0.00133634 5.56257 0 6.68232L0 16.819C0.00133634 17.9387 0.445108 19.0122 1.23397 19.804C2.02284 20.5958 3.09239 21.0412 4.20801 21.0425H15.9904C17.1061 21.0412 18.1756 20.5958 18.9645 19.804C19.7533 19.0122 20.1971 17.9387 20.1985 16.819V6.68232C20.1971 5.56257 19.7533 4.48906 18.9645 3.69727C18.1756 2.90548 17.1061 2.46007 15.9904 2.45873ZM1.6832 6.68232C1.6832 6.01022 1.94921 5.36565 2.4227 4.8904C2.8962 4.41515 3.53839 4.14816 4.20801 4.14816H15.9904C16.6601 4.14816 17.3023 4.41515 17.7757 4.8904C18.2492 5.36565 18.5152 6.01022 18.5152 6.68232V7.52704H1.6832V6.68232ZM15.9904 19.3531H4.20801C3.53839 19.3531 2.8962 19.0861 2.4227 18.6109C1.94921 18.1356 1.6832 17.4911 1.6832 16.819V9.21648H18.5152V16.819C18.5152 17.4911 18.2492 18.1356 17.7757 18.6109C17.3023 19.0861 16.6601 19.3531 15.9904 19.3531Z" fill="#5D5D5D"/>
<path d="M10.0993 14.707C10.7965 14.707 11.3617 14.1397 11.3617 13.4399C11.3617 12.7401 10.7965 12.1729 10.0993 12.1729C9.40211 12.1729 8.83691 12.7401 8.83691 13.4399C8.83691 14.1397 9.40211 14.707 10.0993 14.707Z" fill="#5D5D5D"/>
<path d="M5.89131 14.707C6.58852 14.707 7.15371 14.1397 7.15371 13.4399C7.15371 12.7401 6.58852 12.1729 5.89131 12.1729C5.1941 12.1729 4.62891 12.7401 4.62891 13.4399C4.62891 14.1397 5.1941 14.707 5.89131 14.707Z" fill="#5D5D5D"/>
<path d="M14.3073 14.707C15.0045 14.707 15.5697 14.1397 15.5697 13.4399C15.5697 12.7401 15.0045 12.1729 14.3073 12.1729C13.6101 12.1729 13.0449 12.7401 13.0449 13.4399C13.0449 14.1397 13.6101 14.707 14.3073 14.707Z" fill="#5D5D5D"/>
</svg>
