<svg width="29" height="24" viewBox="0 0 29 24" fill="none" xmlns="http://www.w3.org/2000/svg">
<path d="M27.5401 4.94347C27.199 4.53416 26.772 4.20498 26.2894 3.97928C25.8068 3.75359 25.2804 3.63693 24.7476 3.63758H5.14353L5.09261 3.21198C4.98839 2.32734 4.5632 1.51169 3.89765 0.919674C3.2321 0.327653 2.37246 0.000414433 1.48171 0L1.21253 0C0.890944 0 0.582533 0.127748 0.35514 0.35514C0.127748 0.582533 0 0.890944 0 1.21253C0 1.53411 0.127748 1.84252 0.35514 2.06991C0.582533 2.2973 0.890944 2.42505 1.21253 2.42505H1.48171C1.77869 2.42509 2.06534 2.53412 2.28727 2.73147C2.50921 2.92882 2.651 3.20076 2.68574 3.49571L4.35418 17.6823C4.52739 19.1576 5.23626 20.5181 6.34625 21.5054C7.45623 22.4926 8.89006 23.038 10.3756 23.038H23.038C23.3596 23.038 23.668 22.9102 23.8954 22.6828C24.1228 22.4554 24.2505 22.147 24.2505 21.8255C24.2505 21.5039 24.1228 21.1955 23.8954 20.9681C23.668 20.7407 23.3596 20.6129 23.038 20.6129H10.3756C9.62509 20.6108 8.89363 20.3766 8.28147 19.9425C7.66931 19.5083 7.20642 18.8954 6.95626 18.1879H21.4096C22.831 18.188 24.2073 17.6886 25.2979 16.777C26.3886 15.8655 27.1242 14.5997 27.3764 13.2008L28.3282 7.92143C28.4232 7.39762 28.4019 6.85934 28.2657 6.34471C28.1295 5.83007 27.8818 5.35169 27.5401 4.94347ZM25.948 7.49098L24.995 12.7703C24.8436 13.6106 24.4014 14.3708 23.7459 14.9179C23.0904 15.465 22.2634 15.7641 21.4096 15.7628H6.57067L5.42969 6.06263H24.7476C24.9258 6.06156 25.1019 6.09975 25.2636 6.17449C25.4253 6.24922 25.5685 6.35866 25.6831 6.49502C25.7977 6.63138 25.8809 6.79132 25.9267 6.96346C25.9725 7.13559 25.9797 7.3157 25.948 7.49098Z" fill="white"/>
</svg>
