<svg width="19" height="21" viewBox="0 0 19 21" fill="none" xmlns="http://www.w3.org/2000/svg">
<path d="M9.68492 5.23486C8.99745 5.23486 8.32541 5.43948 7.7538 5.82283C7.18218 6.20619 6.73666 6.75107 6.47358 7.38856C6.21049 8.02606 6.14166 8.72754 6.27578 9.40431C6.40989 10.0811 6.74095 10.7027 7.22706 11.1906C7.71318 11.6786 8.33254 12.0108 9.0068 12.1455C9.68107 12.2801 10.38 12.211 11.0151 11.9469C11.6503 11.6829 12.1931 11.2357 12.5751 10.662C12.957 10.0882 13.1609 9.4137 13.1609 8.72367C13.1609 7.79838 12.7946 6.91099 12.1428 6.25671C11.4909 5.60243 10.6068 5.23486 9.68492 5.23486ZM9.68492 10.4681C9.34119 10.4681 9.00517 10.3658 8.71936 10.1741C8.43355 9.98242 8.21079 9.70998 8.07925 9.39123C7.94771 9.07248 7.91329 8.72174 7.98035 8.38336C8.04741 8.04498 8.21294 7.73415 8.45599 7.49019C8.69905 7.24623 9.00873 7.0801 9.34586 7.01279C9.683 6.94548 10.0324 6.98002 10.35 7.11205C10.6676 7.24408 10.939 7.46767 11.13 7.75453C11.321 8.0414 11.4229 8.37866 11.4229 8.72367C11.4229 9.18632 11.2398 9.63002 10.9139 9.95716C10.5879 10.2843 10.1459 10.4681 9.68492 10.4681Z" fill="#5D5D5D"/>
<path d="M9.68588 20.9346C8.95415 20.9384 8.23216 20.7661 7.58039 20.4323C6.92861 20.0984 6.36601 19.6127 5.93969 19.0158C2.62799 14.4306 0.948242 10.9837 0.948242 8.77C0.948242 6.44405 1.86881 4.21337 3.50744 2.56867C5.14606 0.92398 7.36851 0 9.68588 0C12.0032 0 14.2257 0.92398 15.8643 2.56867C17.5029 4.21337 18.4235 6.44405 18.4235 8.77C18.4235 10.9837 16.7438 14.4306 13.4321 19.0158C13.0058 19.6127 12.4431 20.0984 11.7914 20.4323C11.1396 20.7661 10.4176 20.9384 9.68588 20.9346ZM9.68588 1.90402C7.8718 1.9061 6.13262 2.63033 4.84987 3.91782C3.56712 5.20532 2.84557 6.95095 2.8435 8.77174C2.8435 10.5249 4.48848 13.7669 7.47431 17.9002C7.72779 18.2507 8.06033 18.5359 8.44472 18.7325C8.82911 18.9292 9.25443 19.0317 9.68588 19.0317C10.1173 19.0317 10.5426 18.9292 10.927 18.7325C11.3114 18.5359 11.644 18.2507 11.8974 17.9002C14.8833 13.7669 16.5283 10.5249 16.5283 8.77174C16.5262 6.95095 15.8046 5.20532 14.5219 3.91782C13.2391 2.63033 11.5 1.9061 9.68588 1.90402Z" fill="#5D5D5D"/>
</svg>
