<?xml version="1.0" encoding="UTF-8"?>
<svg id="Capa_2" data-name="Capa 2" xmlns="http://www.w3.org/2000/svg" viewBox="0 0 338.85 91.97">
  <defs>
    <style>
      .cls-1 {
        fill: #e0e0df;
        stroke-width: 0px;
      }
    </style>
  </defs>
  <g id="Layer_1" data-name="Layer 1">
    <g>
      <g>
        <path class="cls-1" d="M292.87,13.37c3.69,0,6.69-3,6.69-6.69s-3-6.69-6.69-6.69-6.69,3-6.69,6.69,3,6.69,6.69,6.69Z"/>
        <path class="cls-1" d="M305.97,26.47c3.69,0,6.69-3,6.69-6.69s-3-6.69-6.69-6.69-6.69,3-6.69,6.69,3,6.69,6.69,6.69Z"/>
        <path class="cls-1" d="M319.07,39.57c3.69,0,6.69-3,6.69-6.69s-3-6.69-6.69-6.69-6.69,3-6.69,6.69,3,6.69,6.69,6.69Z"/>
        <path class="cls-1" d="M332.16,39.3c-3.69,0-6.69,3-6.69,6.69s3,6.69,6.69,6.69,6.69-3,6.69-6.69-3-6.69-6.69-6.69Z"/>
        <path class="cls-1" d="M319.07,52.4c-3.69,0-6.69,3-6.69,6.69s3,6.69,6.69,6.69,6.69-3,6.69-6.69-3-6.69-6.69-6.69Z"/>
        <path class="cls-1" d="M305.97,65.5c-3.69,0-6.69,3-6.69,6.69s3,6.69,6.69,6.69,6.69-3,6.69-6.69-3-6.69-6.69-6.69Z"/>
        <path class="cls-1" d="M292.87,78.6c-3.69,0-6.69,3-6.69,6.69s3,6.69,6.69,6.69,6.69-3,6.69-6.69-3-6.69-6.69-6.69Z"/>
        <path class="cls-1" d="M266.67,13.37c3.69,0,6.69-3,6.69-6.69s-3-6.69-6.69-6.69-6.69,3-6.69,6.69,3,6.69,6.69,6.69Z"/>
        <path class="cls-1" d="M279.77,26.47c3.69,0,6.69-3,6.69-6.69s-3-6.69-6.69-6.69-6.69,3-6.69,6.69,3,6.69,6.69,6.69Z"/>
        <path class="cls-1" d="M292.87,39.57c3.69,0,6.69-3,6.69-6.69s-3-6.69-6.69-6.69-6.69,3-6.69,6.69,3,6.69,6.69,6.69Z"/>
        <path class="cls-1" d="M305.97,52.67c3.69,0,6.69-3,6.69-6.69s-3-6.69-6.69-6.69-6.69,3-6.69,6.69,3,6.69,6.69,6.69Z"/>
        <path class="cls-1" d="M292.87,65.77c3.69,0,6.69-3,6.69-6.69s-3-6.69-6.69-6.69-6.69,3-6.69,6.69,3,6.69,6.69,6.69Z"/>
        <path class="cls-1" d="M279.77,65.5c-3.69,0-6.69,3-6.69,6.69s3,6.69,6.69,6.69,6.69-3,6.69-6.69-3-6.69-6.69-6.69Z"/>
        <path class="cls-1" d="M266.67,78.6c-3.69,0-6.69,3-6.69,6.69s3,6.69,6.69,6.69,6.69-3,6.69-6.69-3-6.69-6.69-6.69Z"/>
      </g>
      <g>
        <g>
          <path class="cls-1" d="M7.04,52.77c.23,1.61.68,2.82,1.35,3.62,1.22,1.45,3.32,2.18,6.28,2.18,1.78,0,3.22-.19,4.33-.57,2.1-.73,3.15-2.1,3.15-4.1,0-1.17-.52-2.07-1.54-2.71-1.03-.62-2.66-1.17-4.9-1.65l-3.82-.84c-3.76-.83-6.34-1.73-7.74-2.71-2.38-1.63-3.57-4.18-3.57-7.64,0-3.16,1.16-5.79,3.49-7.88,2.33-2.09,5.75-3.14,10.26-3.14,3.77,0,6.98.99,9.64,2.96,2.66,1.97,4.05,4.83,4.18,8.59h-7.09c-.13-2.12-1.08-3.63-2.85-4.53-1.18-.59-2.64-.89-4.39-.89-1.95,0-3.5.38-4.67,1.15-1.16.77-1.74,1.84-1.74,3.21,0,1.26.57,2.2,1.72,2.83.74.42,2.3.9,4.69,1.46l6.2,1.46c2.72.64,4.75,1.49,6.11,2.56,2.1,1.66,3.16,4.06,3.16,7.21s-1.25,5.9-3.74,8.04c-2.49,2.13-6.02,3.2-10.57,3.2s-8.3-1.05-10.97-3.15c-2.66-2.1-3.99-4.99-3.99-8.66h7.04Z"/>
          <path class="cls-1" d="M66.46,37.66c1.12.45,2.13,1.23,3.04,2.35.73.91,1.23,2.03,1.48,3.35.16.88.24,2.16.24,3.86l-.05,16.45h-6.99v-16.62c0-.99-.16-1.8-.48-2.44-.61-1.21-1.72-1.82-3.35-1.82-1.88,0-3.19.78-3.9,2.35-.37.83-.55,1.83-.55,2.99v15.54h-6.87v-15.54c0-1.55-.16-2.67-.48-3.38-.57-1.26-1.7-1.89-3.38-1.89-1.95,0-3.26.63-3.93,1.89-.37.72-.55,1.79-.55,3.21v15.71h-6.92v-26.06h6.63v3.81c.85-1.36,1.64-2.32,2.4-2.9,1.33-1.02,3.04-1.53,5.15-1.53,2,0,3.61.44,4.84,1.32.99.81,1.74,1.86,2.25,3.14.89-1.53,2-2.66,3.33-3.38,1.4-.72,2.97-1.08,4.69-1.08,1.15,0,2.28.22,3.4.67Z"/>
          <path class="cls-1" d="M87.84,47.79c1.27-.16,2.18-.36,2.73-.6.98-.41,1.47-1.06,1.47-1.94,0-1.07-.38-1.81-1.13-2.22-.75-.41-1.86-.61-3.31-.61-1.63,0-2.79.4-3.47,1.2-.49.59-.81,1.39-.97,2.39h-6.59c.14-2.28.79-4.16,1.92-5.63,1.81-2.3,4.92-3.45,9.33-3.45,2.87,0,5.42.57,7.65,1.7,2.23,1.13,3.34,3.27,3.34,6.42v11.97c0,.83.02,1.84.05,3.02.05.89.18,1.5.41,1.82.22.32.56.58,1.01.79v1.01h-7.42c-.21-.53-.35-1.02-.43-1.48-.08-.46-.14-.99-.19-1.58-.95,1.02-2.04,1.89-3.28,2.61-1.48.85-3.15,1.27-5.01,1.27-2.38,0-4.34-.67-5.89-2.02-1.55-1.35-2.32-3.26-2.32-5.74,0-3.21,1.25-5.53,3.74-6.97,1.37-.78,3.38-1.34,6.03-1.68l2.34-.29ZM92.01,50.98c-.44.27-.88.49-1.32.66-.45.17-1.06.32-1.83.47l-1.55.29c-1.46.26-2.5.57-3.14.93-1.08.62-1.61,1.59-1.61,2.9,0,1.17.33,2.01.99,2.53.66.52,1.46.78,2.4.78,1.49,0,2.87-.43,4.12-1.29,1.26-.86,1.91-2.43,1.96-4.72v-2.54Z"/>
          <path class="cls-1" d="M119.28,36.96c.09,0,.28.02.59.04v6.99c-.43-.05-.81-.08-1.15-.1-.34-.02-.61-.02-.81-.02-2.75,0-4.59.89-5.53,2.68-.53,1.01-.79,2.55-.79,4.65v12.48h-6.87v-26.11h6.51v4.55c1.05-1.74,1.97-2.93,2.75-3.57,1.28-1.07,2.94-1.6,4.98-1.6.13,0,.24,0,.32.01Z"/>
          <path class="cls-1" d="M121.19,42.67v-4.86h3.64v-7.28h6.75v7.28h4.24v4.86h-4.24v13.8c0,1.07.14,1.74.41,2,.27.26,1.1.4,2.49.4.21,0,.43,0,.66-.01.23,0,.46-.02.68-.04v5.1l-3.23.12c-3.23.11-5.43-.45-6.61-1.68-.77-.78-1.15-1.99-1.15-3.62v-16.07h-3.64Z"/>
        </g>
        <g>
          <path class="cls-1" d="M141.32,63.67V28.36h12.9c2.29,0,4.18.26,5.67.78,1.49.52,2.66,1.24,3.53,2.16.87.92,1.47,1.97,1.81,3.16.34,1.19.51,2.44.51,3.75,0,1.96-.4,3.58-1.2,4.86-.8,1.28-1.84,2.28-3.11,3.02-1.28.74-2.72,1.25-4.34,1.54-1.62.29-3.25.44-4.88.44h-7.55v15.6h-3.34ZM152.3,45.23c1.57,0,2.97-.1,4.22-.29,1.24-.2,2.3-.56,3.16-1.1.87-.54,1.54-1.28,2.01-2.21.47-.93.71-2.15.71-3.65,0-2.22-.73-3.91-2.18-5.05-1.46-1.14-3.77-1.72-6.94-1.72h-8.63v14.03h7.65Z"/>
          <path class="cls-1" d="M179.47,48.86c.56-.06,1.22-.16,1.99-.29.77-.13,1.4-.31,1.89-.54.49-.23.79-.61.91-1.15.11-.54.17-1.04.17-1.5,0-1.5-.48-2.74-1.45-3.7-.97-.96-2.59-1.45-4.88-1.45-1.01,0-1.95.09-2.8.27-.85.18-1.59.49-2.23.93-.64.44-1.16,1.03-1.57,1.77s-.68,1.66-.81,2.77h-2.99c.1-1.5.44-2.79,1.03-3.85.59-1.06,1.35-1.93,2.28-2.6.93-.67,2.01-1.16,3.24-1.47,1.23-.31,2.53-.47,3.9-.47,1.28,0,2.48.14,3.61.42,1.13.28,2.11.72,2.94,1.32.83.61,1.49,1.41,1.96,2.43.47,1.01.71,2.26.71,3.73v13.83c0,1.14.2,1.87.61,2.18.41.31,1.23.24,2.48-.22v2.31c-.23.07-.56.16-1.01.29-.44.13-.88.2-1.3.2-.46,0-.9-.05-1.32-.15-.49-.07-.88-.22-1.18-.47-.29-.25-.53-.54-.71-.88-.18-.34-.3-.72-.37-1.13-.07-.41-.1-.84-.1-1.3-1.24,1.37-2.67,2.42-4.27,3.14-1.6.72-3.34,1.08-5.2,1.08-1.11,0-2.18-.15-3.21-.44-1.03-.29-1.94-.75-2.72-1.37-.78-.62-1.41-1.38-1.86-2.28-.46-.9-.69-1.97-.69-3.21,0-4.32,2.96-6.87,8.88-7.65l4.07-.54ZM184.43,50.33c-1.24.52-2.5.87-3.78,1.03-1.28.16-2.55.29-3.83.39-2.26.16-4.01.67-5.27,1.52-1.26.85-1.89,2.14-1.89,3.87,0,.78.15,1.46.47,2.04.31.57.72,1.05,1.23,1.42.51.38,1.1.65,1.77.83.67.18,1.35.27,2.04.27,1.18,0,2.32-.15,3.43-.44,1.11-.29,2.1-.74,2.97-1.35.87-.6,1.56-1.37,2.08-2.31.52-.93.78-2.04.78-3.31v-3.97Z"/>
          <path class="cls-1" d="M195.07,55.73c.46,2.19,1.28,3.74,2.48,4.64,1.19.9,2.9,1.35,5.13,1.35,1.08,0,2.01-.13,2.8-.39.78-.26,1.43-.61,1.94-1.05.51-.44.89-.94,1.15-1.5.26-.56.39-1.14.39-1.77,0-1.24-.4-2.17-1.2-2.77-.8-.6-1.81-1.08-3.02-1.42-1.21-.34-2.52-.64-3.92-.88-1.41-.25-2.71-.61-3.92-1.1-1.21-.49-2.22-1.19-3.02-2.11-.8-.92-1.2-2.21-1.2-3.88,0-2.13.78-3.87,2.33-5.22,1.55-1.36,3.75-2.04,6.6-2.04s4.98.61,6.7,1.84,2.75,3.28,3.11,6.16h-2.99c-.26-1.96-1.01-3.34-2.23-4.14-1.23-.8-2.77-1.2-4.64-1.2s-3.29.4-4.27,1.2c-.98.8-1.47,1.86-1.47,3.16,0,1.14.4,2.02,1.2,2.62.8.61,1.81,1.1,3.02,1.47,1.21.38,2.52.71,3.92,1.01,1.41.29,2.71.71,3.92,1.25,1.21.54,2.21,1.27,3.02,2.18.8.92,1.2,2.19,1.2,3.83,0,1.21-.26,2.28-.78,3.21-.52.93-1.24,1.71-2.16,2.33-.92.62-2,1.09-3.26,1.4-1.26.31-2.64.47-4.14.47s-2.84-.22-4-.66c-1.16-.44-2.15-1.05-2.97-1.84-.82-.78-1.46-1.7-1.91-2.75-.46-1.05-.72-2.17-.78-3.38h2.99Z"/>
          <path class="cls-1" d="M218.62,55.73c.46,2.19,1.28,3.74,2.48,4.64,1.19.9,2.9,1.35,5.13,1.35,1.08,0,2.01-.13,2.8-.39.78-.26,1.43-.61,1.94-1.05.51-.44.89-.94,1.15-1.5.26-.56.39-1.14.39-1.77,0-1.24-.4-2.17-1.2-2.77-.8-.6-1.81-1.08-3.02-1.42-1.21-.34-2.52-.64-3.92-.88-1.41-.25-2.71-.61-3.92-1.1-1.21-.49-2.22-1.19-3.02-2.11-.8-.92-1.2-2.21-1.2-3.88,0-2.13.78-3.87,2.33-5.22,1.55-1.36,3.75-2.04,6.6-2.04s4.98.61,6.7,1.84c1.72,1.23,2.75,3.28,3.11,6.16h-2.99c-.26-1.96-1.01-3.34-2.23-4.14-1.23-.8-2.77-1.2-4.63-1.2s-3.29.4-4.27,1.2c-.98.8-1.47,1.86-1.47,3.16,0,1.14.4,2.02,1.2,2.62.8.61,1.81,1.1,3.02,1.47,1.21.38,2.52.71,3.92,1.01,1.41.29,2.71.71,3.92,1.25,1.21.54,2.21,1.27,3.02,2.18.8.92,1.2,2.19,1.2,3.83,0,1.21-.26,2.28-.78,3.21s-1.24,1.71-2.16,2.33c-.92.62-2,1.09-3.26,1.4-1.26.31-2.64.47-4.14.47s-2.84-.22-4-.66c-1.16-.44-2.15-1.05-2.97-1.84-.82-.78-1.46-1.7-1.91-2.75-.46-1.05-.72-2.17-.78-3.38h2.99Z"/>
        </g>
      </g>
    </g>
  </g>
</svg>