<svg width="100" height="64" viewBox="0 0 100 64" fill="none" xmlns="http://www.w3.org/2000/svg">
<path d="M2.93885 59.1465C3.03489 59.8088 3.22217 60.3045 3.50069 60.6337C4.01066 61.2317 4.88511 61.5301 6.12404 61.5292C6.73279 61.5468 7.34043 61.4673 7.92336 61.2936C8.80213 60.9909 9.24104 60.4294 9.24008 59.6091C9.24549 59.3836 9.18841 59.1608 9.07495 58.9648C8.96149 58.7687 8.79595 58.6069 8.59612 58.4966C8.1649 58.2411 7.48301 58.015 6.55046 57.8182L4.96002 57.4748C3.39264 57.1323 2.31554 56.761 1.72873 56.3608C0.736634 55.691 0.240583 54.6432 0.240583 53.2175C0.227111 52.6053 0.350614 51.9977 0.602326 51.4377C0.854038 50.8778 1.22779 50.3794 1.69704 49.9777C2.66801 49.1177 4.0947 48.6877 5.9771 48.6877C7.54832 48.6877 8.88905 49.0931 9.99928 49.9039C11.1095 50.7147 11.6915 51.8916 11.7453 53.4346H8.78773C8.73298 52.5614 8.33681 51.9408 7.59922 51.5728C7.02382 51.3132 6.39493 51.1893 5.76244 51.2109C4.94898 51.2109 4.29974 51.3684 3.81474 51.6835C3.58757 51.8214 3.40136 52.0159 3.27489 52.2474C3.14842 52.4788 3.08618 52.7391 3.09443 53.0018C3.08688 53.2435 3.15099 53.4822 3.27891 53.6886C3.40683 53.895 3.59303 54.0602 3.81474 54.1641C4.12207 54.3353 4.77466 54.5359 5.77253 54.7658L8.36563 55.366C9.49795 55.629 10.3474 55.98 10.9141 56.419C11.7909 57.1011 12.2298 58.0893 12.2308 59.3835C12.2404 60.0154 12.1041 60.6412 11.832 61.2136C11.56 61.7859 11.1594 62.2898 10.6605 62.6872C9.6156 63.5642 8.14329 64.0027 6.24361 64.0027C4.30455 64.0027 2.77894 63.5713 1.66679 62.7085C0.554636 61.8456 -0.000959164 60.6583 1.24298e-06 59.1465H2.93885Z" fill="white"/>
<path d="M27.739 52.9338C28.2272 53.1383 28.6558 53.4598 28.9859 53.869C29.316 54.2781 29.5371 54.762 29.6291 55.2767C29.7067 55.8015 29.7399 56.3317 29.7285 56.8618L29.7083 63.6267H26.7954V56.7937C26.8085 56.4481 26.74 56.1041 26.5952 55.789C26.3435 55.2914 25.8773 55.0421 25.1963 55.0411C24.4098 55.0411 23.8667 55.3628 23.567 56.0061C23.4037 56.3958 23.3251 56.815 23.3365 57.2365V63.6224H20.4567V57.2365C20.4567 56.6007 20.3905 56.1367 20.2565 55.8486C20.0173 55.3292 19.5463 55.0709 18.8476 55.0709C18.0331 55.0709 17.4867 55.3302 17.2082 55.8486C17.0545 56.1438 16.9777 56.5837 16.9777 57.1684V63.6267H14.0964V52.9139H16.8653V54.4749C17.2187 53.9177 17.552 53.5208 17.8651 53.2843C18.4183 52.8642 19.1347 52.6542 20.0145 52.6542C20.8471 52.6542 21.5194 52.8344 22.0313 53.1949C22.4512 53.5388 22.7745 53.9829 22.9706 54.4848C23.2946 53.9043 23.7758 53.4238 24.3608 53.097C24.9684 52.7969 25.6404 52.645 26.32 52.6542C26.8069 52.6563 27.2888 52.7513 27.739 52.9338Z" fill="white"/>
<path d="M36.6636 57.0989C37.0523 57.066 37.4349 56.983 37.8017 56.8519C38.2108 56.6816 38.4154 56.4163 38.4154 56.0558C38.4154 55.6159 38.2583 55.3122 37.9443 55.1448C37.6302 54.9773 37.1692 54.8936 36.5613 54.8936C35.8784 54.8936 35.3954 55.0577 35.112 55.386C34.8905 55.673 34.7508 56.0129 34.7072 56.3709H31.9585C32.0171 55.4314 32.2846 54.6599 32.761 54.0563C33.5178 53.1102 34.8143 52.6372 36.6506 52.6372C37.756 52.6166 38.8504 52.856 39.843 53.3354C40.7736 53.8028 41.239 54.6826 41.239 55.9749V60.8978C41.239 61.2398 41.239 61.6528 41.2591 62.1395C41.2793 62.5075 41.336 62.7568 41.4291 62.8874C41.5367 63.0308 41.6815 63.1431 41.8483 63.2123V63.6253H38.7525C38.6713 63.4286 38.6109 63.2241 38.5724 63.0151C38.5392 62.8249 38.5119 62.6092 38.4932 62.3651C38.0939 62.7885 37.6326 63.1506 37.1246 63.4394C36.4868 63.7921 35.7655 63.9719 35.0342 63.9602C34.0412 63.9602 33.2215 63.683 32.5751 63.1286C31.9288 62.5742 31.6056 61.788 31.6056 60.7701C31.6056 59.4456 32.1256 58.4905 33.1658 57.9049C33.7363 57.5823 34.5756 57.3524 35.684 57.2152L36.6636 57.0989ZM38.4053 58.4087C38.2307 58.5165 38.0459 58.6072 37.8535 58.6797C37.6043 58.7641 37.3484 58.8282 37.0886 58.8713L36.4388 58.9891C35.8323 59.0941 35.3958 59.2233 35.1293 59.3737C34.9143 59.4894 34.737 59.6629 34.6179 59.8738C34.4988 60.0848 34.4429 60.3247 34.4566 60.5657C34.4566 61.0444 34.5939 61.3907 34.8686 61.6045C35.1544 61.8214 35.5077 61.9342 35.8684 61.9238C36.4838 61.926 37.0848 61.74 37.5885 61.3916C38.1128 61.0378 38.3851 60.3912 38.4053 59.4517V58.4087Z" fill="white"/>
<path d="M49.7861 52.65C49.8221 52.65 49.9042 52.6585 50.031 52.6656V55.5407C49.8509 55.5209 49.691 55.5081 49.5513 55.501C49.4116 55.4939 49.2978 55.4911 49.2113 55.4911C48.0646 55.4911 47.2963 55.8586 46.9063 56.5937C46.6874 57.0081 46.5774 57.6448 46.5764 58.5038V63.6339H43.7039V52.8941H46.4223V54.7659C46.8622 54.0497 47.2463 53.5606 47.5748 53.2986C48.1078 52.8586 48.8007 52.6387 49.6536 52.6387C49.7011 52.6387 49.7501 52.6401 49.7861 52.65Z" fill="white"/>
<path d="M51.63 54.9914V52.9919H53.1498V49.999H55.9691V52.9919H57.7382V54.9914H55.9691V60.6678C55.9691 61.1077 56.0258 61.3816 56.1391 61.4895C56.2515 61.5988 56.5987 61.6527 57.1778 61.6527C57.2642 61.6527 57.3564 61.6527 57.4529 61.6527C57.5495 61.6527 57.6446 61.6456 57.7411 61.6385V63.7359L56.3912 63.7856C55.0466 63.831 54.1271 63.6011 53.6325 63.0959C53.3126 62.7733 53.1527 62.2776 53.1527 61.6087V54.9914H51.63Z" fill="white"/>
<path d="M60.6324 63.6268V49.1023H66.016C66.9706 49.1023 67.7587 49.2097 68.3801 49.4244C68.9362 49.6006 69.4419 49.9046 69.8552 50.3114C70.2104 50.6786 70.4699 51.1251 70.6116 51.6127C70.7571 52.1142 70.8299 52.6336 70.8276 53.1552C70.8276 53.9627 70.6591 54.6269 70.3249 55.1519C70.0031 55.6643 69.5577 56.0904 69.0283 56.3922C68.4657 56.7048 67.8526 56.9199 67.216 57.028C66.5439 57.1481 65.8621 57.2084 65.179 57.2082H62.0241V63.6211L60.6324 63.6268ZM65.2179 56.0445C65.807 56.0494 66.3956 56.0091 66.9783 55.9239C67.4446 55.861 67.8933 55.7066 68.2979 55.4698C68.6581 55.2504 68.949 54.9364 69.1378 54.563C69.3549 54.0918 69.4575 53.5772 69.4375 53.0602C69.4375 52.1463 69.134 51.4537 68.527 50.9826C67.92 50.5115 66.9543 50.2749 65.6299 50.2731H62.0284V56.0403L65.2179 56.0445Z" fill="white"/>
<path d="M76.5584 57.5372C76.7908 57.5098 77.0674 57.4695 77.3882 57.4166C77.6597 57.377 77.9247 57.3021 78.1762 57.1938C78.274 57.1515 78.3598 57.0862 78.4259 57.0035C78.492 56.9208 78.5363 56.8234 78.5551 56.7198C78.6006 56.518 78.6248 56.3121 78.6271 56.1053C78.637 55.8244 78.5886 55.5445 78.4848 55.2826C78.381 55.0208 78.224 54.7826 78.0235 54.5826C77.6201 54.1862 76.9411 53.988 75.9865 53.988C75.5946 53.985 75.2036 54.022 74.8195 54.0987C74.4859 54.1635 74.1689 54.2938 73.8875 54.4819C73.615 54.6704 73.3906 54.9186 73.232 55.207C73.0462 55.5604 72.9317 55.946 72.8949 56.3423H71.6459C71.6695 55.7899 71.8171 55.2495 72.0781 54.76C72.3105 54.3382 72.6359 53.9731 73.0303 53.6914C73.4383 53.4079 73.8966 53.2023 74.3816 53.0855C74.9141 52.9553 75.4609 52.8909 76.0095 52.8939C76.5135 52.8954 77.0155 52.9564 77.5049 53.0755C77.9463 53.1774 78.3636 53.3624 78.7337 53.6205C79.0883 53.8771 79.37 54.2192 79.552 54.6138C79.7636 55.0971 79.865 55.6204 79.8487 56.1465V61.8342C79.8487 62.3073 79.9342 62.6062 80.1051 62.7311C80.2751 62.8588 80.6209 62.829 81.1395 62.6403V63.5882L80.7189 63.7089C80.5432 63.7615 80.3608 63.7888 80.1772 63.7897C79.9911 63.7903 79.8055 63.7704 79.624 63.7301C79.4451 63.7135 79.2747 63.6471 79.1327 63.5386C79.0108 63.4376 78.91 63.3142 78.836 63.1753C78.7596 63.0298 78.7076 62.8731 78.6818 62.7112C78.654 62.5342 78.6405 62.3553 78.6415 62.1762C78.1461 62.7246 77.5395 63.1645 76.8609 63.4676C76.1774 63.7656 75.4373 63.9166 74.6899 63.9104C74.2365 63.912 73.7851 63.8513 73.3487 63.7301C72.9361 63.6163 72.5503 63.4234 72.2135 63.1625C71.8873 62.91 71.6216 62.5897 71.4356 62.2245C71.2344 61.8129 71.1356 61.36 71.1474 60.9033C71.1474 59.1294 72.3825 58.0807 74.8527 57.7572L76.5584 57.5372ZM78.6271 58.1417C78.1237 58.3533 77.5935 58.4965 77.0511 58.5675C76.518 58.6346 75.9855 58.6881 75.4534 58.7278C74.5113 58.7959 73.7775 59.0045 73.2522 59.3536C72.7268 59.7027 72.4637 60.233 72.4627 60.9445C72.4549 61.2352 72.5218 61.5232 72.6572 61.7817C72.7818 62.0118 72.957 62.2116 73.1701 62.3664C73.391 62.5261 73.6408 62.6426 73.9062 62.7098C74.1834 62.7833 74.4691 62.8205 74.7562 62.8205C75.2423 62.8218 75.7266 62.7607 76.1968 62.6389C76.6395 62.5279 77.0586 62.34 77.4343 62.084C77.7921 61.8372 78.0878 61.5129 78.2986 61.136C78.5264 60.7182 78.6396 60.2492 78.6271 59.7751V58.1417Z" fill="white"/>
<path d="M83.0685 60.3599C83.2606 61.2615 83.6054 61.8968 84.1028 62.2658C84.6003 62.6348 85.3134 62.8197 86.2422 62.8207C86.6374 62.8287 87.0314 62.7741 87.409 62.6589C87.7046 62.5715 87.9794 62.4267 88.2172 62.2332C88.4198 62.0635 88.5838 61.8536 88.6984 61.6173C88.8075 61.3907 88.8637 61.1429 88.8626 60.8921C88.8626 60.3812 88.6955 60.0028 88.3613 59.7568C87.9819 59.487 87.555 59.2887 87.1022 59.1722C86.563 59.023 86.0163 58.9018 85.4642 58.8089C84.9035 58.715 84.3544 58.5628 83.8262 58.3548C83.3426 58.1683 82.911 57.8711 82.5672 57.4877C82.2329 57.1093 82.0658 56.578 82.0658 55.894C82.0548 55.4873 82.1364 55.0833 82.3047 54.7118C82.473 54.3402 82.7236 54.0105 83.0382 53.7469C83.6865 53.1897 84.6042 52.9106 85.7912 52.9097C86.938 52.9097 87.8696 53.1618 88.586 53.666C89.3025 54.1703 89.7347 55.0142 89.8826 56.1977H88.6336C88.5241 55.3898 88.2134 54.8221 87.7015 54.4948C87.1896 54.1675 86.5447 54.0028 85.7667 54.001C84.9888 54.001 84.3953 54.1656 83.9862 54.4948C83.7882 54.6494 83.6296 54.8475 83.523 55.0732C83.4165 55.2988 83.3649 55.5459 83.3725 55.7947C83.361 56.0012 83.4006 56.2074 83.488 56.3956C83.5753 56.5837 83.7077 56.7481 83.8738 56.8746C84.2551 57.146 84.681 57.3505 85.1329 57.4792C85.6371 57.6334 86.1831 57.771 86.7709 57.8921C87.3333 58.0065 87.8818 58.1792 88.4074 58.4073C88.8888 58.6117 89.3186 58.9179 89.6665 59.3041C90.0017 59.6826 90.1693 60.2072 90.1693 60.8779C90.1784 61.3385 90.0651 61.7935 89.8408 62.1977C89.6218 62.5826 89.3132 62.9109 88.9404 63.1556C88.5278 63.4215 88.0701 63.6123 87.5891 63.719C87.0228 63.8512 86.4424 63.9155 85.8604 63.9105C85.2923 63.9203 84.727 63.8284 84.1922 63.6395C83.7317 63.4722 83.3102 63.2149 82.9532 62.8831C82.6134 62.5606 82.3421 62.1747 82.1551 61.7478C81.9608 61.3073 81.85 60.8355 81.8281 60.3557L83.0685 60.3599Z" fill="white"/>
<path d="M92.8963 60.3599C93.0884 61.2615 93.4327 61.8968 93.9292 62.2658C94.4257 62.6348 95.1388 62.8197 96.0685 62.8207C96.4638 62.8287 96.8578 62.7741 97.2354 62.6589C97.5314 62.5715 97.8066 62.4267 98.045 62.2332C98.2476 62.0635 98.4116 61.8536 98.5262 61.6173C98.634 61.3903 98.6895 61.1427 98.689 60.8921C98.689 60.3812 98.5219 60.0028 98.1877 59.7568C97.8084 59.4867 97.3815 59.2884 96.9286 59.1722C96.3894 59.0229 95.8427 58.9016 95.2906 58.8089C94.7303 58.7152 94.1816 58.563 93.6541 58.3548C93.17 58.1683 92.7379 57.8711 92.3935 57.4877C92.0593 57.1093 91.8922 56.578 91.8922 55.894C91.8812 55.4873 91.9628 55.0833 92.1311 54.7118C92.2993 54.3402 92.55 54.0105 92.8646 53.7469C93.5129 53.1897 94.431 52.9106 95.619 52.9097C96.7658 52.9097 97.6969 53.1618 98.4124 53.666C99.1279 54.1703 99.5601 55.0142 99.7089 56.1977H98.4599C98.3504 55.3898 98.0398 54.8221 97.5279 54.4948C97.016 54.1675 96.3715 54.0028 95.5946 54.001C94.8166 54.001 94.2226 54.1656 93.8125 54.4948C93.6145 54.6494 93.4559 54.8475 93.3494 55.0732C93.2428 55.2988 93.1913 55.5459 93.1988 55.7947C93.1874 56.0012 93.227 56.2074 93.3143 56.3956C93.4016 56.5837 93.5341 56.7481 93.7002 56.8746C94.0814 57.146 94.5074 57.3505 94.9592 57.4792C95.4635 57.6334 96.0095 57.771 96.5972 57.8921C97.1601 58.0068 97.7091 58.1794 98.2352 58.4073C98.7161 58.6124 99.1458 58.9185 99.4943 59.3041C99.8285 59.6826 99.9956 60.2072 99.9956 60.8779C100.005 61.3385 99.8915 61.7935 99.6672 62.1977C99.4482 62.5826 99.1396 62.9109 98.7668 63.1556C98.352 63.4266 97.8907 63.6213 97.4054 63.7303C96.8391 63.8626 96.2587 63.9269 95.6767 63.9219C95.1085 63.9316 94.5433 63.8398 94.0084 63.6508C93.548 63.4835 93.1265 63.2262 92.7695 62.8945C92.4297 62.5719 92.1584 62.186 91.9714 61.7592C91.7779 61.3184 91.6671 60.8467 91.6444 60.367L92.8963 60.3599Z" fill="white"/>
<path d="M47.2866 5.45786C47.8345 5.45758 48.3699 5.29729 48.8253 4.99726C49.2807 4.69723 49.6356 4.27094 49.845 3.77226C50.0545 3.27359 50.1091 2.72494 50.0021 2.19567C49.895 1.66641 49.6311 1.18029 49.2436 0.798785C48.8561 0.417279 48.3625 0.157515 47.8251 0.0523331C47.2878 -0.0528483 46.7308 0.00127646 46.2247 0.207864C45.7186 0.414452 45.286 0.764227 44.9817 1.21297C44.6773 1.66171 44.5149 2.18926 44.5149 2.72893C44.5157 3.4527 44.808 4.1466 45.3276 4.65825C45.8473 5.1699 46.5519 5.45748 47.2866 5.45786Z" fill="white"/>
<path d="M52.712 10.8021C53.2599 10.8024 53.7957 10.6426 54.2515 10.3429C54.7072 10.0432 55.0625 9.61709 55.2724 9.11847C55.4823 8.61985 55.5374 8.07111 55.4307 7.54165C55.3239 7.0122 55.0602 6.52582 54.6728 6.14403C54.2854 5.76224 53.7918 5.50219 53.2544 5.39678C52.717 5.29137 52.1599 5.34533 51.6536 5.55183C51.1473 5.75834 50.7146 6.10811 50.4101 6.55691C50.1056 7.00571 49.9431 7.53338 49.9431 8.07317C49.9435 8.79657 50.2353 9.49025 50.7544 10.0019C51.2736 10.5135 51.9776 10.8013 52.712 10.8021Z" fill="white"/>
<path d="M58.1387 16.1463C58.6866 16.1463 59.2222 15.9863 59.6778 15.6864C60.1334 15.3866 60.4884 14.9604 60.6981 14.4617C60.9078 13.9631 60.9627 13.4144 60.8558 12.885C60.7489 12.3557 60.485 11.8694 60.0976 11.4878C59.7102 11.1061 59.2165 10.8462 58.6792 10.7409C58.1418 10.6356 57.5848 10.6897 57.0786 10.8962C56.5723 11.1028 56.1397 11.4525 55.8353 11.9013C55.5309 12.3501 55.3684 12.8777 55.3684 13.4174C55.3688 14.1411 55.6608 14.8349 56.1802 15.3466C56.6997 15.8583 57.4041 16.146 58.1387 16.1463Z" fill="white"/>
<path d="M63.5641 16.0371C63.0161 16.0368 62.4804 16.1966 62.0246 16.4963C61.5689 16.796 61.2135 17.2221 61.0037 17.7207C60.7938 18.2194 60.7387 18.7681 60.8454 19.2976C60.9521 19.827 61.2159 20.3134 61.6033 20.6952C61.9906 21.077 62.4842 21.337 63.0217 21.4424C63.5591 21.5478 64.1162 21.4939 64.6225 21.2874C65.1288 21.0809 65.5615 20.7311 65.866 20.2823C66.1704 19.8335 66.3329 19.3058 66.3329 18.766C66.3322 18.0428 66.0403 17.3493 65.5212 16.8377C65.0022 16.3262 64.2983 16.0382 63.5641 16.0371Z" fill="white"/>
<path d="M58.1387 21.3787C57.5907 21.3784 57.055 21.5382 56.5992 21.8379C56.1434 22.1376 55.7881 22.5637 55.5782 23.0623C55.3683 23.5609 55.3133 24.1097 55.42 24.6391C55.5267 25.1686 55.7905 25.6549 56.1778 26.0367C56.5652 26.4185 57.0588 26.6786 57.5963 26.784C58.1337 26.8894 58.6908 26.8354 59.1971 26.6289C59.7033 26.4224 60.1361 26.0727 60.4406 25.6239C60.745 25.1751 60.9075 24.6474 60.9075 24.1076C60.9068 23.3843 60.6149 22.6908 60.0958 22.1793C59.5767 21.6677 58.8729 21.3798 58.1387 21.3787Z" fill="white"/>
<path d="M52.712 26.7244C52.1644 26.7246 51.6292 26.8849 51.1741 27.1847C50.7189 27.4846 50.3643 27.9107 50.1549 28.4091C49.9456 28.9075 49.891 29.4559 49.998 29.9849C50.105 30.5138 50.3688 30.9997 50.7561 31.381C51.1434 31.7623 51.6367 32.022 52.1738 32.1271C52.7109 32.2322 53.2675 32.1781 53.7734 31.9716C54.2792 31.7652 54.7116 31.4156 55.0158 30.9671C55.3199 30.5185 55.4823 29.9913 55.4823 29.4519C55.4815 28.7285 55.1894 28.0349 54.67 27.5236C54.1506 27.0122 53.4464 26.7247 52.712 26.7244Z" fill="white"/>
<path d="M47.2866 32.073C46.739 32.0733 46.2038 32.2335 45.7487 32.5334C45.2935 32.8332 44.9389 33.2593 44.7295 33.7577C44.5202 34.2561 44.4655 34.8045 44.5725 35.3335C44.6795 35.8625 44.9434 36.3483 45.3307 36.7296C45.7179 37.111 46.2113 37.3706 46.7484 37.4757C47.2854 37.5808 47.8421 37.5267 48.3479 37.3203C48.8538 37.1138 49.2862 36.7642 49.5903 36.3157C49.8945 35.8672 50.0569 35.3399 50.0569 34.8005C50.0561 34.0771 49.764 33.3836 49.2445 32.8722C48.7251 32.3608 48.0209 32.0734 47.2866 32.073Z" fill="white"/>
<path d="M36.436 5.45786C36.9839 5.45814 37.5197 5.29833 37.9755 4.99864C38.4312 4.69896 38.7865 4.27285 38.9964 3.77423C39.2063 3.27561 39.2614 2.72687 39.1546 2.19741C39.0479 1.66796 38.7842 1.18158 38.3968 0.799788C38.0094 0.417999 37.5158 0.157952 36.9784 0.0525408C36.441 -0.0528707 35.8839 0.00108832 35.3776 0.207593C34.8713 0.414097 34.4386 0.76387 34.1341 1.21267C33.8296 1.66147 33.6671 2.18914 33.6671 2.72893C33.6679 3.45221 33.9598 4.14567 34.4788 4.65725C34.9979 5.16882 35.7017 5.45673 36.436 5.45786Z" fill="white"/>
<path d="M41.8613 10.8021C42.4092 10.8024 42.945 10.6426 43.4007 10.3429C43.8565 10.0432 44.2118 9.61709 44.4217 9.11847C44.6316 8.61985 44.6867 8.07111 44.5799 7.54165C44.4732 7.0122 44.2095 6.52582 43.8221 6.14403C43.4347 5.76224 42.9411 5.50219 42.4037 5.39678C41.8663 5.29137 41.3092 5.34533 40.8029 5.55183C40.2966 5.75834 39.8639 6.10811 39.5594 6.55691C39.2549 7.00571 39.0924 7.53338 39.0924 8.07317C39.0932 8.79645 39.3851 9.48991 39.9041 10.0015C40.4232 10.5131 41.127 10.801 41.8613 10.8021Z" fill="white"/>
<path d="M47.2866 16.1463C47.8345 16.1461 48.3699 15.9858 48.8253 15.6857C49.2807 15.3857 49.6356 14.9594 49.845 14.4607C50.0545 13.9621 50.1091 13.4134 50.0021 12.8842C49.895 12.3549 49.6311 11.8688 49.2436 11.4873C48.8561 11.1058 48.3625 10.846 47.8251 10.7408C47.2878 10.6356 46.7308 10.6898 46.2247 10.8963C45.7186 11.1029 45.286 11.4527 44.9817 11.9014C44.6773 12.3502 44.5149 12.8777 44.5149 13.4174C44.5157 14.1412 44.808 14.8351 45.3276 15.3467C45.8473 15.8584 46.5519 16.146 47.2866 16.1463Z" fill="white"/>
<path d="M52.712 21.4908C53.26 21.4911 53.7958 21.3313 54.2516 21.0315C54.7074 20.7318 55.0627 20.3056 55.2726 19.8069C55.4824 19.3082 55.5374 18.7593 55.4305 18.2299C55.3237 17.7004 55.0598 17.214 54.6723 16.8322C54.2848 16.4505 53.791 16.1906 53.2535 16.0853C52.716 15.9801 52.1589 16.0342 51.6526 16.241C51.1463 16.4477 50.7137 16.7977 50.4094 17.2467C50.1051 17.6957 49.9428 18.2235 49.9431 18.7633C49.9439 19.4865 50.2358 20.1798 50.7549 20.6911C51.274 21.2025 51.9779 21.4901 52.712 21.4908Z" fill="white"/>
<path d="M47.2866 26.8351C47.8345 26.8348 48.3701 26.6745 48.8255 26.3744C49.2809 26.0743 49.6357 25.6479 49.8452 25.1491C50.0546 24.6504 50.1091 24.1017 50.002 23.5723C49.8948 23.043 49.6307 22.5569 49.2431 22.1755C48.8554 21.794 48.3617 21.5344 47.8242 21.4294C47.2868 21.3243 46.7298 21.3787 46.2237 21.5855C45.7176 21.7923 45.2851 22.1423 44.981 22.5912C44.6768 23.0401 44.5146 23.5678 44.5149 24.1075C44.516 24.8311 44.8085 25.5246 45.3282 26.0359C45.8478 26.5473 46.5521 26.8347 47.2866 26.8351Z" fill="white"/>
<path d="M41.8613 26.7244C41.3137 26.7246 40.7785 26.8849 40.3234 27.1847C39.8682 27.4846 39.5136 27.9107 39.3042 28.4091C39.0949 28.9075 39.0403 29.4559 39.1473 29.9849C39.2542 30.5138 39.5181 30.9997 39.9054 31.381C40.2926 31.7623 40.786 32.022 41.3231 32.1271C41.8601 32.2322 42.4168 32.1781 42.9227 31.9716C43.4285 31.7652 43.8609 31.4156 44.165 30.9671C44.4692 30.5185 44.6316 29.9913 44.6316 29.4519C44.6308 28.7285 44.3387 28.0349 43.8192 27.5236C43.2998 27.0122 42.5956 26.7247 41.8613 26.7244Z" fill="white"/>
<path d="M36.4359 32.073C35.8883 32.0733 35.3531 32.2335 34.898 32.5334C34.4428 32.8332 34.0882 33.2593 33.8788 33.7577C33.6695 34.2561 33.6148 34.8045 33.7218 35.3335C33.8288 35.8625 34.0927 36.3483 34.4799 36.7296C34.8672 37.111 35.3606 37.3706 35.8977 37.4757C36.4347 37.5808 36.9914 37.5267 37.4972 37.3203C38.0031 37.1138 38.4354 36.7642 38.7396 36.3157C39.0438 35.8672 39.2062 35.3399 39.2062 34.8005C39.2054 34.0771 38.9132 33.3836 38.3938 32.8722C37.8744 32.3608 37.1702 32.0734 36.4359 32.073Z" fill="white"/>
</svg>
